<svg xmlns="http://www.w3.org/2000/svg" viewBox="0 0 688 247"><path d="M492.07 142.91q.34-.23.47-.61 1.48-4.57 4.3-7.93 2.48-2.95 6.31-6.23c4.46-3.81 9.36-5.29 14.84-7.08a1.02 1.01-85.3 0 0 .58-.5c2.1-4.1 7.12-5.98 10.12-1.73q1.65 2.33 3.62 4.14a1 .99-47.6 0 1 .06 1.41c-2.89 3.14.06 4.77 2.72 6.44q18.22 11.44 38.77 6.99 2.78-.6.24-1.88c-21.59-10.81-38.77-24.61-50.84-46.42-7.71-13.96-12.54-39.83 6.57-48.18 9.94-4.34 17.09-.12 24.91 6.74q5.46 4.8 9.46 10.96.98 1.51 1.74-.13 9.91-21.32 31.76-30.46c22.74-9.51 40.67 8.8 41.83 30.46 1.18 22.04-9.07 38.37-24.73 53.12a.93.92-68.9 0 1-.6.27c-1.86.16-5.6 5.71-8.07 7.18-.9.54-1.96.33-2.37 1.7a.98.97 77.6 0 1-.3.47c-2.86 2.46-8.58 6.07-9.71 9.64a1.06 1-10.6 0 1-.37.51l-3.92 2.8q-1.46 1.05.2 1.74 29.23 12.22 60.59 14.45 10.6.76 20.63-2.51c1.58-.52 3.44-.1 2.76 2.05a1.01 1.01 0 0 1-.64.64c-13.25 4.5-22.87 5.02-36.91 3.32q-28.8-3.47-55.11-15.03a.99.97 45.8 0 0-.76-.02c-16.27 6.27-33.35 5.36-48.75-2.93q-2.9-1.56-2.53 1.57a1.01 1-32.4 0 1-.15.65c-1.34 2.09-2.21 4-3.97 5.69-7.71 7.38-20.06 12.36-30.44 7.43a.98.97 41.9 0 0-.95.05l-3.73 2.29q-2 1.23-2.95-1.27c-2.34-6.17-3.99-12.51-7.83-18q-1.93-2.76-4.72-1.52-2.21.98-3.93 2.54a.97.97 0 0 1-.66.26l-.8.02a1.01.99 12.7 0 0-.88.55l-1.96 3.96a1.01 1.01 0 0 0 .02.91l7.38 13.8a1 1 0 0 1-.46 1.38l-5.22 2.4a1 1 0 0 1-1.33-.49q-1.39-3.01-2.85-6c-1.31-2.67-3.63-4.6-5.16-7.32-1.53-2.74-2.96-3.57-5.6-4.69a1 1 0 0 0-1.2.33q-4.36 5.98-6.87 12.84-.93 2.52-2.18 4.86a1.03.99 1.3 0 1-.47.43l-5.97 2.75a1.02 1 54 0 1-1.11-.19c-4.48-4.29-6.93-9.27-10.2-14.46-.67-1.07-.95-2.43-2.32-3.45a.99.98 17.6 0 1-.41-.78q-.03-2.18-1-.99a.99.99 0 0 0-.19.9q.75 2.75-.68 5.04a1.02.97 62.1 0 0-.15.53v6.19a1.01.99-24 0 1-.27.68c-9.1 9.79-16.72 4.89-26.46.01a1 .99-66.3 0 0-1.38.54c-2.59 6.89-8.63 11.3-15.35 13.43-5.39 1.72-13.8 2.02-14.2-5.94q-.2-3.96 1.08-7.64a1 1 0 0 0-1.02-1.33q-29.26 2.25-58.6 2.86a1 1 0 0 0-.89 1.41q4.73 10.39 12.45 18.77a1 1 0 0 0 1.6-.18q1.73-3.01 5.64-3.18a1 1 0 0 1 1.04.93c.52 7.41-6.65 13.17-13.04 7.56-5.15-4.53-9-9.75-12.2-16.5q-2.14-4.5-4.58-8.54a.99.98 72.6 0 0-.91-.48c-2.86.15-20.03 1.43-16.19-5.22 1.61-2.78 7.82-5.66 10.79-7.17q1.95-.99 1.23-3.06-4.33-12.49-2.35-26.19c.58-4.06 2.1-6.76 6.66-6.02a1.01.99 9.9 0 1 .83 1.16q-2.62 14.71 1.94 28.85a1 1 0 0 0 1.42.58c10.11-5.41 20.7-9.64 31.06-14.59q5.04-2.42 10.15-4.71c2.47-1.11 6.77-2.57 9.99-4.38q1.67-.94 4.13-1.81c5.38-1.9 10.83-4.43 16.05-5.73q8.71-2.19 17.66-3.28a1.01 1-22.7 0 1 .91.37q1.72 2.2-1.63 3.18c-5.77 1.68-12.47 1.95-18.35 3.79-3.55 1.11-7.12 2.21-10.59 3.62q-33.67 13.74-59.04 26.55-1.23.62-.22 1.64.17.16.24.39l2.48 7.52a1.02 1 79.8 0 0 .98.69q31.85-.92 63.62-3.16a.99.94 22.8 0 0 .53-.2c1.53-1.15 2.02-2.85 3.21-4.07q7.16-7.27 17.58-7.89c2.09-.12 10.28 1.94 5.56 4.17a1.01 1-22.5 0 0-.52 1.24q.41 1.15.91 2.22.59 1.24 1.76 2.16 6.76 5.3 14.71 7.96 2.2.74 1.22-1.37-1.48-3.2-2.44-6.6-.91-3.24 1.07-5.73.16-.19.38-.29l3.23-1.43a1.04.98 37.4 0 1 .59-.06c4.22.78 2.89-4.14 6.77-4.08a1.05 1 19.8 0 0 .77-.34q1.52-1.74 3.87-1.64a1.04 1.03 67.3 0 1 .63.26q4.37 4.03 7.11 9.21 2.48 4.69 5.32 9.07 1.06 1.64 1.77-.19 1.97-5.12 5.09-9.57c3.4-4.85 11.42-8.8 16.99-5.47a.99.98-53 0 0 1.24-.18c2.03-2.18 12.22-8.45 15.03-8.14a1.01.99-64.1 0 0 .81-.29c2.95-2.96 8.76 3.4 9.9 5.77q1.91 3.98 3.34 8.14a.64.64 0 0 0 .96.32Zm55.61-33.34q16.05 14.92 35.23 23.59 2.07.93 3.17-1.06c1.09-1.97 1.84-3.62 3.81-4.92 5.65-3.75 10.72-7.78 15.47-12.62 2.59-2.64 5.89-4.16 8.26-7.23q2.83-3.67 3.85-4.76Q634.43 84.4 632.5 59.4c-.72-9.27-5.91-19.22-13.47-24.61q-14.56-10.39-30.12 2.36-12.07 9.89-18.02 24.93c-2.18 5.51-1.57 7.96.48 13.32a1.02 1.01 66.2 0 1-.48 1.25l-5.61 2.93q-3.52 1.84-3.29-2.48c.17-3.39.3-6.09-1.24-9.24q-7.48-15.36-22.47-22.87c-7.37-3.69-12.14 2.59-13.67 8.85-4.86 19.93 8.76 42.42 23.07 55.73Zm-40.24 19.86c-.49 1.33-1.43 1.44-2.13 2.1-3.41 3.19-11.19 15.18-2.09 17.25 7.83 1.78 14.27-1.32 17.97-8.21q2.34-4.36 2.74-6.63c.62-3.52-2.11-5.81-3.95-8.41a1.02 1.01-11.7 0 0-.62-.4c-2.87-.58-3.95 1.13-6.5.91a.97.96-58.6 0 0-.61.15l-4.4 2.73a1.07 1.04-6.9 0 0-.41.51Zm-134.23 18.02q-1.04 1.55.83 1.55h9.02q1.94 0 .57-1.37-1.86-1.85-2.49-4.38a1.01 1 74.5 0 0-1.26-.72q-4.25 1.27-6.67 4.92Zm-88.53 4.44 6.15.29a1 1 0 0 0 .99-1.32l-1.07-3.16a1.01 1-24.1 0 0-1.45-.55l-5.06 2.87q-3.01 1.71.44 1.87Zm85.55 2.7c-4.79 10.9 6.09 15.58 12.11 7.01q2.88-4.1 3.54-9.09.25-1.96-1.48-1.01-.93.52-2.2.76-5.59 1.08-11.17 1.74a1.01 1 8.3 0 0-.8.59ZM50.74 161.94q-.24-.04-1.18.14-15.3 2.88-30.49 6.27-2.15.48-4.19 1.3a1.01 1 70.6 0 1-1.33-.64l-.36-1.18q-.45-1.49 3.29-2.44 17.67-4.48 35.66-7.49a1 1 0 0 0 .81-.76c6.23-27.31 20.13-54.03 41.24-72.9a1.02 1.02 0 0 1 .79-.25q.97.12 1.2-.82a1.07 1.05 78.7 0 1 .37-.57c9.03-6.78 23.04-13.23 33.7-6.07 11.8 7.93 18.17 29.98 22.07 43.2q8.74 29.68 13.7 53.01.43 1.98-.47 4.82a.98.96-5.2 0 1-.51.6l-5.19 2.59q-1.96.97-1.42-1.15c1.25-4.84-.12-8.46-1.33-13.17-5.13-20.05-9.56-37.22-16.92-59.4-3.95-11.9-11.9-30.68-26.94-28.99-5.98.67-14.13 6.41-18.14 10.79q-26.21 28.66-35.09 66.08a1 1 0 0 0 1.14 1.22q33.33-5.62 66.63-9.85 2.7-.34 7.8-1.73c2.17-.59 9.83-3.12 11.26-.22a1.01 1.01 0 0 1-.21 1.18q-1.34 1.25-3.26 1.3-.23 0-.43.11-2.7 1.37-3.95 1.57c-26.38 4.1-52.83 7.21-79.18 11.76a1 .99.4 0 0-.81.79c-2.4 12.14-4.97 39.65 4.48 48.6 1.67 1.59 2.63 4.3-.85 4.4q-.17 0-.34.07l-2.22.9a1.02 1-37.8 0 1-.95-.11q-6.35-4.41-7.57-12.23-3.01-19.45.27-39.21a1.33 1.32-80.6 0 0-1.08-1.52ZM229.98 139.53c9.59.22 19.23-.37 28.83-.62a1.02 1-16.1 0 1 .88.48q.62 1.03-.22 2.1-1.17 1.5-4.47 1.78-12.2 1.03-24.44.72c-1.4-.04-11.63 1.56-11.37-.66a.98.96 76.8 0 1 .43-.71q4.75-3.22 10.36-3.09ZM187.81 141.44q1.02-.02.96 1.05a1 .99-19.5 0 1-.34.7c-3.88 3.44-7.2 2.5-11.43 3.07q-6.94.93-13.92 1.56a1 .99-15.6 0 1-.98-.55c-2.44-4.87 24.59-5.82 25.71-5.83ZM205.98 167.55l31.8 9.91a1.04.98 43.4 0 0 .59 0q4.41-1.33 3.23 2.71a1.03 1.02 84.1 0 1-.47.59q-4.17 2.35-6.62 1.76-5.04-1.21-27.33-8.69a.52.52 0 0 0-.52.11c-.83.78 2.3 2.43 2.75 2.81a1.01 1 37.4 0 1 .18 1.34c-2.76 4-6.23 3.6-9.4.29q-9.24-9.68-9.33-24.13-.02-3.57 2.28-5.22c7.69-5.5 21.89-3.21 30.6-1.97 3.31.47 6.72 3.08 5.08 6.57q-1.04 2.19-3.28 3.66-9.05 5.93-19.45 9.11a.52.5 80.8 0 0-.36.52l.02.34a.34.32-85.1 0 0 .23.29Zm15.08-15.36q-1.35-.62-2.83-.83-9.54-1.36-19.19-1.4a1.01 1-88.2 0 0-1 .95q-.4 6.79 1.94 13.1a1 1 0 0 0 1.24.61c6.2-1.98 14.5-4.15 19.53-8.34q3.3-2.73.31-4.09ZM187.96 180.04c-1.3 2.56-4.29 2.59-6.31 3.49a1.02 1-29.9 0 1-1.2-.31c-6.47-8.49-6.61-22.21-4.03-32.17a.95.94 83.1 0 1 .49-.63l3.8-2.07q2.73-1.49 2.17 2.24c-1.44 9.48-2.12 17.57 2.73 26.53a1.01 1 85.7 0 0 .53.46q1.22.45 1.81 1.53a1 .99-45.9 0 1 .01.93Z"/><path d="M254.35 173.2a1 1 0 0 1 .58 1.56c-2.81 3.86-6.93 3.94-10.38.65q-8.32-7.92-7.16-19.73c.41-4.07 2.07-6.7 6.45-6.43a1 1 0 0 1 .92 1.22q-2.73 11.94 5.71 20.58 1.59 1.62 3.88 2.15Z"/></svg>